<svg xmlns="http://www.w3.org/2000/svg" xmlns:xlink="http://www.w3.org/1999/xlink" width="177.983" height="43.266" viewBox="0 0 177.983 43.266">
    <defs>
        <clipPath id="clip-path">
            <path id="Rectangle_1" data-name="Rectangle 1" class="cls-1" d="M0 0h43.265v21.635H0z"/>
        </clipPath>
        <clipPath id="clip-path-2">
            <path id="Rectangle_2" data-name="Rectangle 2" class="cls-1" d="M0 0h34.551v13.78H0z"/>
        </clipPath>
        <clipPath id="clip-path-3">
            <path id="Rectangle_3" data-name="Rectangle 3" class="cls-1" d="M0 0h45.093v16.251H0z"/>
        </clipPath>
        <clipPath id="clip-path-4">
            <path id="Rectangle_4" data-name="Rectangle 4" class="cls-1" d="M0 0h16.671v13.622H0z"/>
        </clipPath>
        <clipPath id="clip-path-5">
            <path id="Rectangle_6" data-name="Rectangle 6" class="cls-1" d="M0 0h10.115v10.743H0z"/>
        </clipPath>
        <clipPath id="clip-path-6">
            <path id="Path_20" data-name="Path 20" class="cls-1" d="M184.806 1662.431a16.381 16.381 0 0 0-5.721-1.2c-.8-.029-1.537-.026-2.223 0l7.68 10.715a13.573 13.573 0 0 0 2.411-6.32c.1-.93-.042-2.251-2.148-3.2" transform="translate(-176.863 -1661.213)"/>
        </clipPath>
        <clipPath id="clip-path-7">
            <path id="Rectangle_8" data-name="Rectangle 8" class="cls-1" d="M0 0h8.046v6.807H0z"/>
        </clipPath>
        <clipPath id="clip-path-8">
            <path id="Path_21" data-name="Path 21" class="cls-1" d="M171.262 1664.178c1.285-1.456 6.318-1.918 6.526-1.9a14.032 14.032 0 0 0-3.718-.083 9.909 9.909 0 0 0-3.437.883c-.657.338-.726.91-.84 1.764a13.14 13.14 0 0 0 .312 4.087c-.091-.678-.082-3.346 1.157-4.75" transform="translate(-169.743 -1662.124)"/>
        </clipPath>
        <clipPath id="clip-path-10">
            <path id="Rectangle_11" data-name="Rectangle 11" class="cls-1" d="M0 0h9.191v11.034H0z"/>
        </clipPath>
        <clipPath id="clip-path-11">
            <path id="Path_23" data-name="Path 23" class="cls-1" d="M212.422 1662.244c-1.322-.681-3.7-1.136-7.085-1.011-.14.005-.277.011-.413.02l7.877 10.991a14.566 14.566 0 0 0 1.314-6.448c-.022-1.734-.373-2.87-1.693-3.553" transform="translate(-204.925 -1661.212)"/>
        </clipPath>
        <clipPath id="clip-path-12">
            <path id="Rectangle_13" data-name="Rectangle 13" class="cls-1" d="M0 0h7.617v7.755H0z"/>
        </clipPath>
        <clipPath id="clip-path-13">
            <path id="Path_24" data-name="Path 24" class="cls-1" d="M198.361 1664.831c1.068-1.622 5.988-2.785 6.2-2.8a14.043 14.043 0 0 0-3.693.44 9.544 9.544 0 0 0-3.279 1.355c-.774.576-.676 1.008-.585 1.865a15.423 15.423 0 0 0 1.256 4.059c-.184-.658-.925-3.358.1-4.923" transform="translate(-196.94 -1661.999)"/>
        </clipPath>
        <clipPath id="clip-path-14">
            <path id="Rectangle_14" data-name="Rectangle 14" class="cls-1" d="M0 0h3.9v9.17H0z"/>
        </clipPath>
        <linearGradient id="linear-gradient" x1="-14.437" y1="145.528" x2="-14.355" y2="145.528" gradientUnits="objectBoundingBox">
            <stop offset="0" stop-color="#fff"/>
            <stop offset="1" stop-color="#d0d2d3"/>
        </linearGradient>
        <linearGradient id="linear-gradient-2" x1="-17.253" y1="227.843" x2="-17.152" y2="227.843" gradientUnits="objectBoundingBox">
            <stop offset="0" stop-color="#fff"/>
            <stop offset="1" stop-color="#e6e7e8"/>
        </linearGradient>
        <linearGradient id="linear-gradient-3" x1="-18.515" y1="140.459" x2="-18.425" y2="140.459" xlink:href="#linear-gradient"/>
        <linearGradient id="linear-gradient-4" x1="-21.142" y1="199.106" x2="-21.034" y2="199.106" xlink:href="#linear-gradient-2"/>
        <style>
            .cls-1{fill:none}.cls-2{fill:#fff}.cls-3{fill:#0d4f78}.cls-4{fill:#5f9fd5}.cls-6{fill:#f37b33}.cls-7{opacity:.1;mix-blend-mode:multiply;isolation:isolate}.cls-9{fill:#010202}.cls-12{opacity:.3}.cls-13{clip-path:url(#clip-path-4)}.cls-14{fill:#e5e6e7}.cls-15{opacity:.5}.cls-19{opacity:.8}.cls-30{clip-path:url(#clip-path-14)}
        </style>
    </defs>
    <g id="Group_3353" data-name="Group 3353" transform="translate(-165.383 -1647.95)">
        <path id="Path_1" data-name="Path 1" class="cls-2" d="M188.051 1690.862a21.188 21.188 0 1 1 14.984-6.205 21.055 21.055 0 0 1-14.984 6.205" transform="translate(-.248 -.089)"/>
        <path id="Path_2" data-name="Path 2" class="cls-3" d="M192.7 1692.988a18.774 18.774 0 0 0 13.667-5.624 19.635 19.635 0 0 0 5.788-13.973 19.877 19.877 0 0 0-.6-4.884 19.465 19.465 0 0 0-19.473 19.557 19.694 19.694 0 0 0 .623 4.924" transform="translate(-4.481 -3.451)"/>
        <path id="Path_3" data-name="Path 3" class="cls-4" d="m169.811 1668.471 1.9.106a8.722 8.722 0 0 0 14.812 5.3 7.763 7.763 0 0 1 1.862 3.7l.808.007a8.411 8.411 0 0 1 1.772-3.74l.045.02a8.93 8.93 0 0 0 1.359 1.117l.039.034a20.258 20.258 0 0 0-4.2 17.915 19.585 19.585 0 0 1-19.053-19.57 18.87 18.87 0 0 1 .644-4.89" transform="translate(-.632 -3.445)"/>
        <path id="Path_4" data-name="Path 4" d="M209.719 1665.618a8.764 8.764 0 1 1-8.764-8.765 8.763 8.763 0 0 1 8.764 8.765" transform="translate(-4.501 -1.495)" style="fill:#fcfdff"/>
        <path id="Path_5" data-name="Path 5" class="cls-3" d="M208.74 1657.416a9.293 9.293 0 0 1-1.3.564l-.009-.027a8.585 8.585 0 0 1 4.8 8.775v.041q.99-.1 2.007-.1h-.013a19.655 19.655 0 0 0-5.221-9.033c-.082-.081-.166-.164-.251-.243z" transform="translate(-6.933 -1.586)"/>
        <path id="Path_6" data-name="Path 6" class="cls-2" d="M205.82 1664.4a1.492 1.492 0 1 1-1.492-1.492 1.492 1.492 0 0 1 1.492 1.492" transform="translate(-6.288 -2.512)"/>
        <path id="Path_7" data-name="Path 7" class="cls-2" d="M199.878 1669.437a3.129 3.129 0 0 0 .771.705l1.044-1.773z" transform="translate(-5.791 -3.428)"/>
        <path id="Path_8" data-name="Path 8" class="cls-3" d="M199.967 1666.788a2.574 2.574 0 1 0 2.575-2.574 2.574 2.574 0 0 0-2.575 2.574" transform="translate(-5.806 -2.731)"/>
        <path id="Path_9" data-name="Path 9" class="cls-6" d="M192.254 1677.276a9 9 0 0 1 1.863-3.5l-.008.008a9 9 0 0 1-1.85-3.468h-.01a8.982 8.982 0 0 1-1.85 3.466l-.008-.008a9 9 0 0 1 1.863 3.5z" transform="translate(-4.199 -3.756)"/>
        <path id="Path_10" data-name="Path 10" class="cls-4" d="M175.283 1657.547a9 9 0 0 0 1.28.561l.009-.027a8.584 8.584 0 0 0-4.732 8.729v.041q-.975-.1-1.979-.1h.013a19.592 19.592 0 0 1 5.148-8.984c.082-.081.164-.163.247-.242z" transform="translate(-.751 -1.608)"/>
        <path id="Path_11" data-name="Path 11" class="cls-3" d="M185.22 1666.788a2.574 2.574 0 1 1-2.574-2.574 2.574 2.574 0 0 1 2.574 2.574" transform="translate(-2.466 -2.731)"/>
        <g id="Group_3" data-name="Group 3" class="cls-7" transform="translate(166.17 1668.844)">
            <g id="Group_2" data-name="Group 2">
                <g id="Group_1" data-name="Group 1" style="clip-path:url(#clip-path)">
                    <path id="Path_12" data-name="Path 12" class="cls-9" d="M209.594 1673.064a21.632 21.632 0 1 1-43.265 0h2.51a19.122 19.122 0 0 0 38.244 0z" transform="translate(-166.329 -1673.061)"/>
                </g>
            </g>
        </g>
        <path id="Path_13" data-name="Path 13" class="cls-6" d="M187.962 1691.216a21.631 21.631 0 1 1 15.3-6.335 21.493 21.493 0 0 1-15.3 6.335m0-40.754a19.12 19.12 0 1 0 13.521 5.6 19 19 0 0 0-13.521-5.6" transform="translate(-.159)"/>
        <g id="Group_6" data-name="Group 6" class="cls-7" transform="translate(170.78 1649.315)">
            <g id="Group_5" data-name="Group 5">
                <g id="Group_4" data-name="Group 4" style="clip-path:url(#clip-path-2)">
                    <path id="Path_14" data-name="Path 14" class="cls-9" d="m189.135 1658.153-17.241-8.568c-.1 1.079-.354 7.439 8.162 8.164.177-.01.355-.016.534-.016a9.34 9.34 0 0 1 8.544 5.6z" transform="translate(-171.869 -1649.589)"/>
                    <path id="Path_15" data-name="Path 15" class="cls-9" d="m209.877 1649.585-17.258 8.578v5.206a9.339 9.339 0 0 1 8.562-5.637c.18 0 .358.007.534.016 8.515-.725 8.258-7.084 8.162-8.164" transform="translate(-175.353 -1649.589)"/>
                </g>
            </g>
        </g>
        <g id="Group_9" data-name="Group 9" class="cls-7" transform="translate(165.44 1658.326)">
            <g id="Group_8" data-name="Group 8">
                <g id="Group_7" data-name="Group 7" style="clip-path:url(#clip-path-3)">
                    <path id="Path_16" data-name="Path 16" class="cls-9" d="M200.748 1676.673a20.776 20.776 0 0 1-2.717-.2 8.911 8.911 0 0 1-5.092-2.278 12.426 12.426 0 0 1-3.6-7.4l-.026-.174c-.091-.59-.524-.889-1.286-.889h-.062c-1.107 0-1.237.64-1.284.88v.022c-.028.139-.057.307-.091.5a12.02 12.02 0 0 1-1.034 3.506 12.409 12.409 0 0 1-2.506 3.557 8.888 8.888 0 0 1-5.084 2.273 20.788 20.788 0 0 1-2.717.2c-3.012 0-5.078-.836-6.312-2.555-1.608-2.239-1.923-5.721-2.057-7.206l-.016-.174c-.113-1.229-.66-1.487-.89-1.543a.585.585 0 0 1-.5-.648c-.006-.194-.039-1.381-.02-1.812a.85.85 0 0 1 .479-.793 22.04 22.04 0 0 1 3.433-.84 33.636 33.636 0 0 1 6.644-.681c.836 0 1.7.032 2.557.1a28.354 28.354 0 0 1 7.09 1.666 10.776 10.776 0 0 0 2.341.254 12.74 12.74 0 0 0 2.334-.254 28.421 28.421 0 0 1 7.091-1.666c.861-.067 1.721-.1 2.557-.1a33.638 33.638 0 0 1 6.644.681 22.121 22.121 0 0 1 3.433.84.849.849 0 0 1 .478.793c.019.431-.014 1.618-.02 1.812a.584.584 0 0 1-.5.648c-.23.056-.776.314-.89 1.543l-.015.173c-.135 1.487-.449 4.969-2.058 7.208-1.235 1.719-3.3 2.555-6.312 2.555m-.891-14.588c-.349 0-.713.006-1.079.019a16.226 16.226 0 0 0-5.619 1.176c-1.98.892-2.087 2.1-1.994 2.928a14.783 14.783 0 0 0 1.2 4.265 7.011 7.011 0 0 0 4.912 4.323 16.637 16.637 0 0 0 3.333.373c2.445 0 4.28-.736 5.168-2.077a12.691 12.691 0 0 0 1.5-6.685c-.022-1.848-.441-2.748-1.549-3.319a13.756 13.756 0 0 0-5.873-1m-23.719 0a13.758 13.758 0 0 0-5.873 1c-1.107.571-1.527 1.471-1.549 3.319a12.682 12.682 0 0 0 1.505 6.685c.888 1.339 2.723 2.077 5.167 2.077a16.621 16.621 0 0 0 3.332-.373 7.013 7.013 0 0 0 4.914-4.323 14.814 14.814 0 0 0 1.2-4.265c.092-.831-.013-2.036-1.992-2.928a16.275 16.275 0 0 0-5.621-1.176c-.367-.013-.73-.019-1.08-.019" transform="translate(-165.451 -1660.42)"/>
                </g>
            </g>
        </g>
        <path id="Path_17" data-name="Path 17" class="cls-3" d="m209.877 1649.165-17.258 8.578v5.207a9.339 9.339 0 0 1 8.562-5.637c.18 0 .358.007.534.018 8.515-.727 8.258-7.085 8.162-8.166" transform="translate(-4.573 -.204)"/>
        <path id="Path_18" data-name="Path 18" class="cls-4" d="m189.135 1657.735-17.241-8.57c-.1 1.081-.354 7.439 8.162 8.166.177-.012.355-.018.534-.018a9.341 9.341 0 0 1 8.544 5.6z" transform="translate(-1.089 -.204)"/>
        <g id="Group_12" data-name="Group 12" class="cls-12" transform="translate(168.379 1658.984)">
            <g id="Group_11" data-name="Group 11">
                <g id="Group_10" data-name="Group 10" class="cls-13">
                    <path id="Path_19" data-name="Path 19" class="cls-14" d="M183.484 1662.431a16.373 16.373 0 0 0-5.721-1.2c-3.387-.126-5.762.329-7.085 1.01s-1.672 1.819-1.693 3.553.29 4.936 1.549 6.836 4.3 2.747 8.778 1.818c5.277-1.095 6.217-7.89 6.32-8.82s-.042-2.251-2.148-3.2" transform="translate(-168.984 -1661.21)"/>
                </g>
            </g>
        </g>
        <g id="Group_17" data-name="Group 17" class="cls-15" transform="translate(174.936 1658.984)">
            <g id="Group_16" data-name="Group 16">
                <g id="Group_15" data-name="Group 15" style="clip-path:url(#clip-path-5)">
                    <g id="Group_14" data-name="Group 14" transform="translate(0 .002)">
                        <g id="Group_13" data-name="Group 13" style="clip-path:url(#clip-path-6)">
                            <path id="Rectangle_5" data-name="Rectangle 5" transform="translate(0 -.009)" style="fill:url(#linear-gradient)" d="M0 0h10.194v10.748H0z"/>
                        </g>
                    </g>
                </g>
            </g>
        </g>
        <g id="Group_22" data-name="Group 22" class="cls-19" transform="translate(169.011 1659.741)">
            <g id="Group_21" data-name="Group 21">
                <g id="Group_20" data-name="Group 20" style="clip-path:url(#clip-path-7)">
                    <g id="Group_19" data-name="Group 19" transform="translate(0 .003)">
                        <g id="Group_18" data-name="Group 18" style="clip-path:url(#clip-path-8)">
                            <path id="Rectangle_7" data-name="Rectangle 7" transform="translate(-.133 -.056)" style="fill:url(#linear-gradient-2)" d="M0 0h8.179v6.862H0z"/>
                        </g>
                    </g>
                </g>
            </g>
        </g>
        <g id="Group_25" data-name="Group 25" class="cls-12" transform="translate(190.807 1658.984)">
            <g id="Group_24" data-name="Group 24">
                <g id="Group_23" data-name="Group 23" class="cls-13">
                    <path id="Path_22" data-name="Path 22" class="cls-14" d="M198.108 1662.431a16.374 16.374 0 0 1 5.721-1.2c3.387-.126 5.762.329 7.085 1.01s1.672 1.819 1.693 3.553-.29 4.936-1.549 6.836-4.3 2.747-8.777 1.818c-5.278-1.095-6.217-7.89-6.32-8.82s.042-2.251 2.148-3.2" transform="translate(-195.936 -1661.21)"/>
                </g>
            </g>
        </g>
        <g id="Group_30" data-name="Group 30" class="cls-15" transform="translate(198.407 1658.984)">
            <g id="Group_29" data-name="Group 29">
                <g id="Group_28" data-name="Group 28" style="clip-path:url(#clip-path-10)">
                    <g id="Group_27" data-name="Group 27" transform="translate(0 .002)">
                        <g id="Group_26" data-name="Group 26" style="clip-path:url(#clip-path-11)">
                            <path id="Rectangle_10" data-name="Rectangle 10" transform="translate(0 -.104)" style="fill:url(#linear-gradient-3)" d="M0 0h9.21v11.136H0z"/>
                        </g>
                    </g>
                </g>
            </g>
        </g>
        <g id="Group_35" data-name="Group 35" class="cls-19" transform="translate(191.642 1659.641)">
            <g id="Group_34" data-name="Group 34">
                <g id="Group_33" data-name="Group 33" style="clip-path:url(#clip-path-12)">
                    <g id="Group_32" data-name="Group 32" transform="translate(0 -.001)">
                        <g id="Group_31" data-name="Group 31" style="clip-path:url(#clip-path-13)">
                            <path id="Rectangle_12" data-name="Rectangle 12" transform="translate(-.128 -.097)" style="fill:url(#linear-gradient-4)" d="M0 0h7.745v7.853H0z"/>
                        </g>
                    </g>
                </g>
            </g>
        </g>
        <path id="Path_25" data-name="Path 25" d="M200.68 1675.839a20.782 20.782 0 0 1-2.718-.195 8.914 8.914 0 0 1-5.091-2.278 12.429 12.429 0 0 1-3.6-7.4l-.026-.174c-.092-.59-.524-.889-1.286-.889h-.059c-1.107 0-1.236.64-1.283.88v.022c-.028.14-.057.307-.091.5a12.026 12.026 0 0 1-1.034 3.5 12.42 12.42 0 0 1-2.505 3.559 8.906 8.906 0 0 1-5.084 2.273 20.782 20.782 0 0 1-2.718.195c-3.011 0-5.077-.835-6.312-2.556-1.608-2.238-1.923-5.719-2.057-7.2l-.016-.175c-.113-1.228-.66-1.486-.89-1.541a.588.588 0 0 1-.5-.648c0-.2-.038-1.381-.019-1.812a.848.848 0 0 1 .478-.793 21.767 21.767 0 0 1 3.434-.841 33.649 33.649 0 0 1 6.644-.681c.836 0 1.7.032 2.557.1a28.4 28.4 0 0 1 7.09 1.666 10.77 10.77 0 0 0 2.341.254 12.739 12.739 0 0 0 2.334-.254 28.436 28.436 0 0 1 7.091-1.666c.861-.066 1.721-.1 2.557-.1a33.655 33.655 0 0 1 6.644.681 21.8 21.8 0 0 1 3.434.841.85.85 0 0 1 .478.793c.019.431-.014 1.616-.02 1.812a.586.586 0 0 1-.5.648c-.231.056-.776.314-.89 1.541l-.016.174c-.134 1.487-.449 4.969-2.057 7.206-1.235 1.721-3.3 2.556-6.312 2.556m-.891-14.588c-.35 0-.714.007-1.079.019a16.249 16.249 0 0 0-5.619 1.176c-1.98.892-2.087 2.1-1.994 2.928a14.75 14.75 0 0 0 1.2 4.265 7.011 7.011 0 0 0 4.912 4.323 16.622 16.622 0 0 0 3.333.373c2.445 0 4.28-.737 5.168-2.077a12.69 12.69 0 0 0 1.5-6.685c-.022-1.848-.442-2.748-1.549-3.319a13.75 13.75 0 0 0-5.873-1m-23.719 0a13.753 13.753 0 0 0-5.873 1c-1.107.571-1.527 1.471-1.549 3.319a12.681 12.681 0 0 0 1.505 6.685c.888 1.339 2.723 2.077 5.167 2.077a16.607 16.607 0 0 0 3.333-.373 7.01 7.01 0 0 0 4.913-4.323 14.777 14.777 0 0 0 1.2-4.265c.093-.83-.013-2.036-1.992-2.928a16.284 16.284 0 0 0-5.62-1.176c-.367-.012-.73-.019-1.08-.019" transform="translate(0 -1.954)" style="fill:#0e4a6c"/>
        <g id="Group_38" data-name="Group 38" class="cls-7" transform="translate(181.57 1661.93)">
            <g id="Group_37" data-name="Group 37">
                <g id="Group_36" data-name="Group 36" class="cls-30">
                    <path id="Path_26" data-name="Path 26" class="cls-9" d="M188.455 1664.747s.71 1.248-.122 4.376a7.781 7.781 0 0 1-3.5 4.794 9.768 9.768 0 0 0 2.981-4.837c.828-3.267.638-4.333.638-4.333" transform="translate(-184.836 -1664.75)"/>
                </g>
            </g>
        </g>
        <path id="Path_27" data-name="Path 27" class="cls-2" d="M218.225 1663.341a.489.489 0 1 1-.489-.489.49.49 0 0 1 .489.489" transform="translate(-8.556 -2.502)"/>
        <g id="Group_41" data-name="Group 41" class="cls-7" transform="translate(190.463 1661.996)">
            <g id="Group_40" data-name="Group 40">
                <g id="Group_39" data-name="Group 39" class="cls-30">
                    <path id="Path_28" data-name="Path 28" class="cls-9" d="M195.805 1664.827s-.71 1.25.122 4.377a7.775 7.775 0 0 0 3.5 4.793 9.763 9.763 0 0 1-2.98-4.837c-.828-3.267-.638-4.333-.638-4.333" transform="translate(-195.523 -1664.83)"/>
                </g>
            </g>
        </g>
        <path id="Path_29" data-name="Path 29" class="cls-2" d="M167.26 1663.341a.489.489 0 1 1-.488-.489.489.489 0 0 1 .488.489" transform="translate(-.151 -2.502)"/>
        <path id="Path_30" data-name="Path 30" class="cls-6" d="M234.007 1682.84v-21.368h-4.635a2.7 2.7 0 0 1-2.162-.866 3.159 3.159 0 0 1-.384-3.513 2.743 2.743 0 0 1 1.039-1.1 2.865 2.865 0 0 1 1.507-.408h15.649a2.869 2.869 0 0 1 1.508.408 2.759 2.759 0 0 1 1.039 1.1 3.035 3.035 0 0 1 .363 1.438 3.12 3.12 0 0 1-.727 2.076 2.69 2.69 0 0 1-2.183.866h-4.634v21.368a3.259 3.259 0 0 1-.884 2.44 3.52 3.52 0 0 1-4.613 0 3.256 3.256 0 0 1-.884-2.44" transform="translate(-10.053 -1.283)"/>
        <path id="Path_31" data-name="Path 31" class="cls-6" d="m290.2 1681.775 8.4-22.718a5.75 5.75 0 0 1 1.763-2.519 4.173 4.173 0 0 1 2.7-.949 4.239 4.239 0 0 1 2.763.939 5.467 5.467 0 0 1 1.7 2.529l8.2 22.718a4.683 4.683 0 0 1 .325 1.548 2.628 2.628 0 0 1-.4 1.429 2.74 2.74 0 0 1-1.051.978 3 3 0 0 1-1.427.346 2.95 2.95 0 0 1-3.06-2.154l-1.228-3.922h-11.6l-1.265 3.883a2.875 2.875 0 0 1-3 2.194 3.1 3.1 0 0 1-2.192-.846 2.721 2.721 0 0 1-.908-2.07 4.183 4.183 0 0 1 .285-1.386m12.827-19.659-3.957 12.113h7.933l-3.894-12.113z" transform="translate(-20.485 -1.283)"/>
        <path id="Path_32" data-name="Path 32" class="cls-6" d="M325.329 1682.84v-21.368h-4.634a2.7 2.7 0 0 1-2.162-.866 3.065 3.065 0 0 1-.748-2.076 3.027 3.027 0 0 1 .364-1.438 2.746 2.746 0 0 1 1.039-1.1 2.865 2.865 0 0 1 1.508-.408h15.65a2.864 2.864 0 0 1 1.507.408 2.747 2.747 0 0 1 1.039 1.1 3.027 3.027 0 0 1 .364 1.438 3.12 3.12 0 0 1-.727 2.076 2.692 2.692 0 0 1-2.183.866h-4.636v21.368a3.259 3.259 0 0 1-.883 2.44 3.521 3.521 0 0 1-4.614 0 3.256 3.256 0 0 1-.884-2.44" transform="translate(-25.084 -1.283)"/>
        <path id="Path_33" data-name="Path 33" class="cls-6" d="M357.162 1686.043a15.227 15.227 0 1 1 15.227-15.227 15.245 15.245 0 0 1-15.227 15.227m0-24.941a9.715 9.715 0 1 0 9.715 9.714 9.725 9.725 0 0 0-9.715-9.714" transform="translate(-29.023 -1.283)"/>
        <path id="Path_34" data-name="Path 34" class="cls-6" d="M262.131 1683.1c0 3.819-5.836 3.951-5.836.089v-24.927a2.623 2.623 0 0 1 2.633-2.677H270.6c11.147 0 13.429 14.922 4.125 18.651l5.836 7.109c2.283 3.38-2.282 6.628-4.914 3.293l-6.627-9.48h-6.89zm0-12.988h8.47c5.7 0 6.056-9.217 0-9.217h-8.47z" transform="translate(-14.956 -1.283)"/>
    </g>
</svg>
